<mxfile host="app.diagrams.net" modified="2024-02-28T08:08:08.354Z" agent="Mozilla/5.0 (Windows NT 10.0; Win64; x64) AppleWebKit/537.36 (KHTML, like Gecko) Chrome/122.0.0.0 Safari/537.36" version="23.1.7" etag="2zMiLCWmnGM5Hh0TtT8H" type="github">
  <diagram name="페이지-1" id="YwNRM8RP5cMRy9pBsfTy">
    <mxGraphModel>
      <root>
        <mxCell id="0" />
        <mxCell id="1" parent="0" />
      </root>
    </mxGraphModel>
  </diagram>
</mxfile>
